<svg width="28" height="28" viewBox="0 0 28 28" fill="none" xmlns="http://www.w3.org/2000/svg">
<path d="M15.7423 0.00474192C15.2913 -0.0425081 14.882 0.268281 14.8267 0.716883C14.7707 1.16707 15.0895 1.57646 15.5388 1.63252C16.6523 1.77109 17.7402 2.16534 18.7728 2.60114C19.1949 2.77647 19.6728 2.57872 19.8479 2.16375C20.0233 1.74561 19.8279 1.26491 19.4105 1.0887C18.2385 0.595203 17.004 0.16175 15.7423 0.00474192V0.00474192Z" fill="#FD346E"/>
<path d="M24.9534 6.66668C25.3147 6.39269 25.3852 5.87759 25.1112 5.51709C24.343 4.50532 23.4402 3.60248 22.4284 2.83423C22.0671 2.56189 21.5536 2.62997 21.2788 2.99206C21.0048 3.35256 21.0753 3.86766 21.4366 4.14165C22.3298 4.81939 23.1261 5.61564 23.8038 6.50885C24.0787 6.87088 24.593 6.93935 24.9534 6.66668V6.66668Z" fill="#FD346E"/>
<path d="M25.7815 8.09729C25.3642 8.27354 25.1687 8.75419 25.3442 9.17233C25.78 10.2049 26.2271 11.3475 26.3658 12.461C26.4195 12.8961 26.8129 13.2277 27.2814 13.1732C27.7308 13.1171 28.0496 12.7077 27.9935 12.2575C27.8365 10.9958 27.35 9.70663 26.8566 8.53468C26.6804 8.1173 26.1989 7.92426 25.7815 8.09729V8.09729Z" fill="#FD346E"/>
<path d="M8.58965 1.08871C8.17227 1.26497 7.97682 1.74562 8.15226 2.16376C8.32769 2.5796 8.80626 2.7761 9.2273 2.60115C10.2599 2.16535 11.3478 1.7711 12.4613 1.63252C12.9107 1.57647 13.2296 1.16708 13.1734 0.716892C13.1174 0.268291 12.7064 -0.0425531 12.2578 0.00475154C10.9961 0.161759 9.76165 0.595213 8.58965 1.08871Z" fill="#FD346E"/>
<path d="M14 28C21.0207 28 27.126 22.6989 27.9935 15.7423C28.0496 15.2929 27.7308 14.8827 27.2814 14.8267C26.8296 14.7762 26.4211 15.0895 26.3658 15.5388C25.5999 21.6768 20.1948 26.3593 14 26.3593C7.2148 26.3593 1.64062 20.7852 1.64062 14C1.64062 11.0095 2.82717 8.09921 4.7578 5.87649V6.14807C4.7578 6.60149 5.1247 6.96838 5.57811 6.96838C6.03153 6.96838 6.39842 6.60149 6.39842 6.14807V3.82812C6.39842 3.37471 6.03153 3.00781 5.57811 3.00781H3.2574C2.80399 3.00781 2.43709 3.37471 2.43709 3.82812C2.43709 4.28154 2.80399 4.64789 3.2574 4.64789H3.65246C1.38026 7.1885 0 10.5412 0 14C0 21.6896 6.31038 28 14 28V28Z" fill="#FD346E"/>
<path d="M4.10156 14C4.10156 19.4282 8.57183 23.8984 14 23.8984C19.4282 23.8984 23.8984 19.4282 23.8984 14C23.8984 8.57183 19.4282 4.10156 14 4.10156C8.57183 4.10156 4.10156 8.57183 4.10156 14ZM14.8203 10.7188C14.8203 10.2653 15.1872 9.89844 15.6406 9.89844C16.094 9.89844 16.4609 10.2653 16.4609 10.7188V13.1797H18.1016V10.7188C18.1016 10.2653 18.4685 9.89844 18.9219 9.89844C19.3753 9.89844 19.7422 10.2653 19.7422 10.7188V17.2812C19.7422 17.7347 19.3753 18.1016 18.9219 18.1016C18.4685 18.1016 18.1016 17.7347 18.1016 17.2812V14.8203H15.6406C15.1872 14.8203 14.8203 14.4534 14.8203 14V10.7188ZM10.7188 11.5391C10.2662 11.5391 9.89844 11.9068 9.89844 12.3594C9.89844 12.8128 9.53154 13.1797 9.07812 13.1797C8.62471 13.1797 8.25781 12.8128 8.25781 12.3594C8.25781 11.0024 9.36173 9.89844 10.7188 9.89844C12.0758 9.89844 13.1797 11.0024 13.1797 12.3594C13.1797 14 12.0878 14.8187 11.2106 15.4764C10.7247 15.8411 10.3786 16.1328 10.1589 16.4609H12.3594C12.8128 16.4609 13.1797 16.8278 13.1797 17.2812C13.1797 17.7347 12.8128 18.1016 12.3594 18.1016H9.07812C8.62471 18.1016 8.25781 17.7347 8.25781 17.2812C8.25781 15.6406 9.3497 14.8219 10.2269 14.1642C11.0649 13.5354 11.5391 13.1412 11.5391 12.3594C11.5391 11.9067 11.1714 11.5391 10.7188 11.5391Z" fill="#FD346E"/>
</svg>
